<svg width="1443" height="1033" viewBox="0 0 1443 1033" fill="none" xmlns="http://www.w3.org/2000/svg">
<rect width="1443" height="1033" fill="white"/>
<path fill-rule="evenodd" clip-rule="evenodd" d="M806.372 252.326C806.267 252.505 806.148 257.726 806.107 263.929C806.067 270.132 805.976 275.263 805.906 275.334C805.836 275.404 803.545 275.18 800.814 274.836C791.713 273.69 777.259 272.81 766.043 272.72C755.89 272.638 754.747 272.704 752.592 273.498C749.594 274.605 746.681 277.372 746.049 279.716C745.718 280.94 745.612 300.516 745.694 345.232C745.807 407.51 745.829 409.049 746.663 410.957C747.133 412.032 747.627 413.009 747.761 413.129C747.895 413.248 748.34 413.872 748.75 414.515C749.781 416.133 752.824 418.11 755.165 418.682C756.242 418.946 759.669 419.279 762.78 419.422C770.934 419.799 787.628 420.877 796.746 421.614C801.067 421.964 804.935 422.249 805.34 422.249C806.023 422.249 806.077 423.921 806.077 445.101V467.954L802.922 467.692C801.187 467.548 796.634 467.226 792.805 466.975C769.125 465.426 764.208 464.823 758.428 462.754C755.143 461.577 750.521 459.234 748.42 457.679C747.702 457.148 746.772 456.587 746.353 456.433C745.631 456.167 745.592 458.227 745.592 495.878V535.604L749.834 535.613C752.168 535.617 762.889 535.906 773.658 536.254C784.428 536.603 796.124 536.892 799.65 536.898L806.061 536.907L806.178 547.439L806.294 557.971H825.658H845.022L845.24 547.765L845.457 537.559L864.386 537.225C874.797 537.041 887.72 536.581 893.105 536.201C898.49 535.821 904.169 535.43 905.724 535.333C907.28 535.235 909.532 534.975 910.729 534.754C911.925 534.534 914.471 534.34 916.385 534.324C921.447 534.283 929.105 532.859 932.115 531.4C935.313 529.85 939.542 525.688 941.082 522.575C944.244 516.18 945.047 506.163 944.998 473.715C944.957 447.002 943.988 424.27 942.034 404.226C941.222 395.891 940.471 393.956 936.694 390.466C931.907 386.043 919.21 380.627 904.854 376.884C890.37 373.108 871.573 369.756 853.507 367.727C850.037 367.337 846.757 366.933 846.219 366.83L845.24 366.641L845.174 355.466C845.138 349.32 845.074 341.971 845.031 339.136L844.953 333.981L847.163 334.279C848.379 334.443 850.255 334.667 851.332 334.778C852.409 334.889 855.052 335.354 857.206 335.812C859.36 336.27 862.689 336.966 864.603 337.359C872.47 338.976 882.537 341.417 889.823 343.473C892.686 344.281 895.182 344.942 895.372 344.942C895.896 344.942 895.784 343.827 895.1 342.243C894.762 341.458 894.066 339.741 893.554 338.428C891.307 332.66 887.229 323.973 884.481 319.101C883.673 317.668 882.415 315.42 881.686 314.106C879.913 310.91 873.519 301.331 873.036 301.15C872.826 301.07 872.654 300.827 872.654 300.61C872.654 300.244 869.843 296.352 869.228 295.865C869.076 295.746 867.779 294.197 866.343 292.423C864.032 289.567 863.331 289.012 860.218 287.575C856.641 285.924 852.248 284.34 847.742 283.078L845.24 282.377V267.189V252H825.901C815.265 252 806.477 252.146 806.372 252.326ZM707.517 272.446C676.578 273.349 646.521 276.079 624.187 280.012C622.392 280.328 620.142 280.72 619.187 280.882C616.295 281.374 612.1 284.945 608.753 289.765C608.076 290.74 607.618 291.634 607.735 291.751C607.853 291.868 610.575 291.578 613.783 291.106C623.973 289.607 642.947 287.656 658.128 286.545C674.698 285.333 681.357 284.999 697.726 284.56C706.701 284.32 718.21 284.007 723.303 283.865L732.562 283.608L732.441 277.901L732.32 272.195L725.793 272.149C722.203 272.123 713.979 272.257 707.517 272.446ZM610.042 282.752C606.964 284.051 605.554 285.116 601.888 288.909C598.464 292.451 592.428 300.103 588.743 305.575C587.801 306.974 586.774 308.216 586.462 308.336C586.15 308.455 585.894 308.833 585.894 309.176C585.894 309.518 585.08 311.305 584.085 313.147C579.35 321.907 573.71 333.635 573.71 334.719C573.71 335.058 573.522 335.453 573.291 335.595C573.06 335.737 572.684 336.481 572.455 337.249C572.226 338.017 571.621 339.72 571.112 341.033C569.904 344.149 567.617 350.948 565.854 356.669C565.081 359.177 563.751 362.578 562.898 364.228C561.381 367.162 561.225 367.306 555.671 370.891C552.549 372.907 549.464 374.928 548.816 375.384C548.167 375.839 547.55 376.213 547.444 376.213C547.112 376.213 537.586 382.539 532.807 385.933C527.163 389.941 524.709 392.173 524.393 393.585C523.172 399.034 521.018 423.643 520.192 441.576C519.851 448.978 519.995 494.073 520.384 501.511C520.939 512.115 521.856 521.007 523.083 527.659L523.821 531.656L525.986 532.12C527.177 532.374 531.402 532.766 535.374 532.991C539.347 533.215 545.926 533.602 549.995 533.85C575.175 535.391 625.057 536.86 625.057 536.06C625.057 535.799 628.982 534.793 633.107 533.996C634.064 533.811 637.295 533.675 640.287 533.695C647.01 533.739 683.744 534.622 701.642 535.169C708.942 535.393 718.884 535.582 723.736 535.59L732.558 535.604L732.439 528.112L732.32 520.621L719.483 520.529C702.828 520.41 668.249 519.672 650.295 519.051C640.336 518.707 635.896 518.399 635.283 518.009C634.426 517.465 633.637 516.08 631.408 511.201C630.161 508.473 630.016 507.375 630.801 506.592C631.201 506.193 643.139 506.071 681.886 506.071H732.449L732.623 474.258C732.728 455.151 732.636 442.227 732.395 441.9C732.171 441.596 732.131 440.344 732.305 439.077C732.749 435.849 732.738 437.362 732.633 392.543L732.537 351.762L705.885 352.016C676.87 352.293 646.092 352.933 625.927 353.68C618.867 353.942 604.991 354.256 595.092 354.379L577.094 354.602L577.398 351.835C578.411 342.634 587.594 317.202 589.919 317.16C590.665 317.147 590.851 316.563 590.703 314.691C590.662 314.176 590.837 313.627 591.09 313.47C591.343 313.315 591.551 312.646 591.551 311.985C591.551 311.268 591.985 310.376 592.627 309.774C593.219 309.219 594.231 307.768 594.875 306.55C596.55 303.381 596.868 302.826 598.254 300.643C603.015 293.143 607.076 287.801 610.726 284.234C613.144 281.871 612.978 281.512 610.042 282.752ZM804.445 330.455L806.077 330.724V347.218V363.711L801.616 363.395C796.413 363.026 794.064 362.121 792.206 359.768C790.458 357.557 790.035 354.98 789.698 344.529C789.43 336.211 789.475 335.24 790.205 333.625C791.421 330.934 793.148 330.217 798.462 330.2C800.855 330.192 803.548 330.306 804.445 330.455ZM547.384 394.88C560.206 395.539 574.578 397.645 585.024 400.395C592.481 402.359 593.456 402.646 598.513 404.367C606.637 407.132 613.338 410.06 620.706 414.064C624.87 416.327 632.461 421.748 632.443 422.447C632.416 423.569 616.625 429.6 613.66 429.621C612.777 429.627 611.953 429.796 611.829 429.997C611.705 430.197 610.469 430.301 609.083 430.228C607.697 430.155 604.899 430.008 602.865 429.902C598.797 429.69 588.804 428.694 580.02 427.624C570.969 426.522 569.73 426.632 564.289 429.029C562.533 429.802 560.252 429.795 557.203 429.006C555.871 428.662 553.124 427.957 551.099 427.44C542.05 425.13 539.412 422.835 537.544 415.649C536.701 412.407 536.629 411.275 536.837 404.443C537.065 396.912 537.49 394.453 538.561 394.454C538.866 394.455 542.837 394.647 547.384 394.88ZM853.725 427.714C856.118 428.06 858.957 428.53 860.034 428.757C861.111 428.984 862.776 429.289 863.733 429.435C864.69 429.581 866.844 429.993 868.52 430.351C877.025 432.17 879.071 432.811 879.748 433.869C879.957 434.196 880.516 434.31 881.141 434.153C883.273 433.62 891.947 437.296 894.296 439.729C895.617 441.098 895.68 441.343 896.341 447.696C896.715 451.3 897.022 456.145 897.022 458.462C897.022 465.332 895.33 467.375 888.857 468.321C886.933 468.603 876.866 468.906 865.365 469.028L845.24 469.241V447.89V426.539L847.306 426.812C848.443 426.961 851.332 427.367 853.725 427.714ZM534.33 473.673C534.808 473.808 536.766 474.205 538.681 474.555C542.705 475.292 549.609 476.702 553.694 477.619C555.249 477.969 561.515 479.343 567.618 480.674C573.721 482.005 583.022 484.179 588.287 485.505C593.553 486.832 598.546 488.076 599.384 488.271C602.318 488.953 606.414 490.38 607.571 491.124C610.109 492.753 613.281 496.691 615.198 500.593C618.712 507.742 619.448 512.143 617.462 514.125C616.475 515.111 616.074 515.192 612.175 515.192C609.854 515.192 605.292 514.892 602.038 514.525C589.065 513.064 578.675 511.677 572.622 510.599C567.664 509.716 566.562 509.791 565.141 511.105C564.144 512.028 563.649 512.184 562.399 511.97C561.56 511.827 559.581 511.521 558.002 511.29C556.423 511.059 553.486 510.307 551.475 509.618C541.296 506.131 536.068 500.29 533.528 489.567C532.631 485.782 531.626 476.043 531.878 473.577C531.911 473.251 532.264 473.096 532.698 473.217C533.117 473.334 533.851 473.539 534.33 473.673ZM521.249 535.17C522.455 554.224 523.77 562.292 525.854 563.405C526.357 563.674 536.236 563.834 552.306 563.834C573.178 563.834 578.045 563.726 578.438 563.254C579.867 561.535 581.136 553.927 581.789 543.164L582.081 538.346L575.176 538.057C559.555 537.403 530.423 535.527 524.988 534.825C522.707 534.531 522.589 534.452 522.159 532.925C521.289 529.836 520.963 530.64 521.249 535.17Z" fill="#127BBF"/>
<path fill-rule="evenodd" clip-rule="evenodd" d="M707.346 272.418C676.435 273.322 646.406 276.052 624.092 279.985C622.298 280.302 620.051 280.693 619.097 280.855C616.207 281.347 612.016 284.918 608.672 289.739C607.996 290.714 607.538 291.608 607.655 291.726C607.773 291.843 610.492 291.552 613.698 291.081C623.878 289.582 642.835 287.63 658.002 286.519C674.557 285.307 681.21 284.973 697.564 284.534C706.531 284.293 718.03 283.981 723.118 283.839L732.368 283.581L732.247 277.875L732.126 272.168L725.605 272.122C722.019 272.096 713.802 272.229 707.346 272.418ZM609.96 282.725C606.885 284.025 605.476 285.09 601.813 288.883C598.392 292.425 592.362 300.079 588.68 305.55C587.739 306.95 586.713 308.192 586.401 308.312C586.089 308.432 585.834 308.809 585.834 309.152C585.834 309.494 585.021 311.282 584.026 313.123C579.296 321.885 573.661 333.614 573.661 334.697C573.661 335.037 573.473 335.431 573.242 335.573C573.012 335.715 572.636 336.46 572.407 337.228C572.179 337.996 571.574 339.699 571.065 341.013C569.858 344.128 567.573 350.928 565.812 356.649C565.04 359.158 563.711 362.559 562.858 364.21C561.343 367.144 561.187 367.288 555.638 370.873C552.519 372.889 549.437 374.911 548.789 375.366C548.141 375.822 547.525 376.195 547.419 376.195C547.088 376.195 537.57 382.522 532.795 385.917C527.156 389.925 524.705 392.157 524.388 393.569C523.169 399.019 521.017 423.63 520.191 441.565C519.851 448.967 519.995 494.067 520.384 501.505C520.937 512.11 521.854 521.003 523.08 527.655L523.817 531.653L525.981 532.117C527.17 532.371 531.391 532.764 535.36 532.988C539.329 533.212 545.902 533.599 549.967 533.848C575.124 535.389 624.961 536.857 624.961 536.057C624.961 535.797 628.883 534.79 633.004 533.993C633.96 533.808 637.188 533.673 640.177 533.693C646.894 533.736 683.595 534.619 701.477 535.167C708.77 535.39 718.703 535.579 723.551 535.587L732.364 535.602L732.246 528.109L732.126 520.616L719.301 520.525C702.662 520.406 668.114 519.667 650.177 519.047C640.226 518.702 635.79 518.394 635.178 518.005C634.322 517.461 633.534 516.075 631.306 511.196C630.061 508.468 629.916 507.37 630.7 506.587C631.1 506.187 643.027 506.066 681.739 506.066H732.256L732.429 474.25C732.534 455.141 732.442 442.216 732.201 441.888C731.977 441.585 731.938 440.333 732.112 439.065C732.555 435.837 732.545 437.351 732.439 392.527L732.344 351.742L705.716 351.996C676.727 352.273 645.977 352.913 625.831 353.66C618.777 353.922 604.914 354.236 595.024 354.359L577.042 354.583L577.345 351.815C578.358 342.613 587.532 317.179 589.855 317.137C590.601 317.124 590.786 316.54 590.639 314.667C590.598 314.153 590.772 313.603 591.025 313.447C591.278 313.291 591.486 312.622 591.486 311.961C591.486 311.244 591.92 310.352 592.561 309.75C593.152 309.195 594.163 307.744 594.806 306.526C596.48 303.357 596.797 302.801 598.182 300.618C602.94 293.118 606.997 287.775 610.643 284.207C613.059 281.844 612.893 281.486 609.96 282.725ZM547.359 394.864C560.169 395.523 574.528 397.629 584.964 400.38C592.415 402.344 593.389 402.631 598.442 404.352C606.558 407.117 613.253 410.045 620.614 414.049C624.775 416.313 632.358 421.734 632.341 422.434C632.313 423.556 616.537 429.587 613.575 429.608C612.692 429.615 611.869 429.784 611.745 429.984C611.621 430.184 610.387 430.289 609.002 430.215C607.617 430.142 604.822 429.995 602.789 429.89C598.725 429.678 588.741 428.681 579.965 427.611C570.922 426.509 569.684 426.619 564.248 429.016C562.494 429.789 560.215 429.782 557.169 428.994C555.839 428.649 553.094 427.944 551.071 427.427C542.03 425.117 539.394 422.822 537.527 415.635C536.686 412.393 536.614 411.261 536.821 404.428C537.049 396.897 537.474 394.437 538.544 394.439C538.849 394.439 542.816 394.631 547.359 394.864ZM534.316 473.665C534.795 473.799 536.751 474.196 538.664 474.547C542.684 475.284 549.582 476.694 553.663 477.611C555.217 477.961 561.477 479.335 567.575 480.666C573.672 481.997 582.965 484.171 588.225 485.498C593.485 486.824 598.474 488.069 599.311 488.264C602.243 488.946 606.335 490.374 607.491 491.117C610.027 492.747 613.196 496.685 615.112 500.587C618.622 507.737 619.357 512.138 617.373 514.121C616.387 515.106 615.986 515.187 612.09 515.187C609.772 515.187 605.215 514.887 601.963 514.52C589.002 513.059 578.621 511.672 572.574 510.594C567.62 509.711 566.519 509.786 565.1 511.1C564.104 512.023 563.609 512.179 562.36 511.966C561.522 511.822 559.545 511.516 557.968 511.285C556.39 511.054 553.455 510.302 551.446 509.613C541.276 506.125 536.053 500.285 533.515 489.56C532.62 485.775 531.615 476.034 531.867 473.569C531.9 473.242 532.252 473.088 532.686 473.208C533.105 473.325 533.838 473.53 534.316 473.665ZM521.248 535.167C522.453 554.223 523.767 562.292 525.848 563.405C526.351 563.674 536.221 563.834 552.277 563.834C573.129 563.834 577.992 563.726 578.384 563.254C579.812 561.534 581.08 553.926 581.733 543.162L582.024 538.344L575.126 538.054C559.519 537.4 530.413 535.524 524.983 534.823C522.705 534.529 522.587 534.449 522.157 532.923C521.287 529.833 520.961 530.637 521.248 535.167Z" fill="#042467"/>
<path d="M613.047 282.177C605.404 283.917 587.279 331.032 579.173 354.372C574.395 357.272 564.928 362.984 565.275 362.636C565.71 360.026 571.355 340.89 573.093 336.106C574.83 331.322 585.253 311.316 593.938 297.399C600.887 286.266 609.573 282.612 613.047 282.177Z" fill="#042467"/>
<path d="M161 704.699C161 696.311 162.737 688.85 166.21 682.317C169.764 675.704 174.772 670.582 181.234 666.953C187.696 663.243 195.127 661.388 203.527 661.388C214.189 661.388 223.155 664.251 230.425 669.977C237.694 675.623 242.379 683.326 244.479 693.085H218.915C217.38 689.859 215.239 687.399 212.493 685.705C209.827 684.011 206.718 683.164 203.164 683.164C197.671 683.164 193.269 685.14 189.957 689.092C186.726 692.964 185.111 698.166 185.111 704.699C185.111 711.313 186.726 716.596 189.957 720.548C193.269 724.419 197.671 726.355 203.164 726.355C206.718 726.355 209.827 725.508 212.493 723.814C215.239 722.121 217.38 719.661 218.915 716.434H244.479C242.379 726.194 237.694 733.937 230.425 739.663C223.155 745.309 214.189 748.132 203.527 748.132C195.127 748.132 187.696 746.317 181.234 742.688C174.772 738.977 169.764 733.856 166.21 727.323C162.737 720.709 161 713.168 161 704.699Z" fill="#042467"/>
<path d="M248.213 713.531C248.213 706.514 249.464 700.384 251.968 695.142C254.553 689.899 258.026 685.866 262.388 683.043C266.831 680.22 271.758 678.809 277.17 678.809C281.855 678.809 285.893 679.736 289.286 681.592C292.678 683.447 295.303 685.947 297.161 689.092V679.656H320.909V747.527H297.161V738.09C295.303 741.236 292.638 743.736 289.165 745.591C285.772 747.446 281.774 748.374 277.17 748.374C271.758 748.374 266.831 746.962 262.388 744.139C258.026 741.316 254.553 737.284 251.968 732.041C249.464 726.718 248.213 720.548 248.213 713.531ZM297.161 713.531C297.161 709.176 295.95 705.748 293.526 703.247C291.184 700.747 288.276 699.497 284.803 699.497C281.249 699.497 278.301 700.747 275.958 703.247C273.616 705.667 272.445 709.095 272.445 713.531C272.445 717.886 273.616 721.354 275.958 723.935C278.301 726.436 281.249 727.686 284.803 727.686C288.276 727.686 291.184 726.436 293.526 723.935C295.95 721.435 297.161 717.967 297.161 713.531Z" fill="#042467"/>
<path d="M354.553 691.633C357.219 687.762 360.45 684.697 364.246 682.438C368.042 680.18 372.121 679.051 376.483 679.051V704.336H369.819C364.65 704.336 360.813 705.344 358.309 707.361C355.805 709.377 354.553 712.886 354.553 717.886V747.527H330.806V679.656H354.553V691.633Z" fill="#042467"/>
<path d="M410.319 748.374C404.18 748.374 398.688 747.366 393.841 745.349C389.076 743.252 385.279 740.429 382.452 736.88C379.706 733.251 378.171 729.178 377.848 724.661H400.868C401.192 726.839 402.201 728.533 403.897 729.743C405.594 730.952 407.694 731.557 410.198 731.557C412.136 731.557 413.671 731.154 414.802 730.347C415.933 729.541 416.498 728.492 416.498 727.202C416.498 725.508 415.569 724.258 413.711 723.451C411.854 722.645 408.784 721.758 404.503 720.79C399.657 719.822 395.618 718.733 392.387 717.523C389.156 716.313 386.329 714.337 383.906 711.595C381.564 708.853 380.392 705.143 380.392 700.465C380.392 696.432 381.483 692.803 383.664 689.576C385.845 686.27 389.035 683.648 393.235 681.713C397.516 679.777 402.645 678.809 408.623 678.809C417.508 678.809 424.495 680.987 429.583 685.342C434.672 689.697 437.62 695.424 438.428 702.521H416.983C416.579 700.344 415.61 698.69 414.075 697.561C412.621 696.351 410.642 695.746 408.138 695.746C406.2 695.746 404.705 696.109 403.655 696.835C402.686 697.561 402.201 698.569 402.201 699.86C402.201 701.473 403.13 702.723 404.988 703.61C406.846 704.417 409.834 705.264 413.954 706.151C418.881 707.199 422.96 708.369 426.191 709.659C429.503 710.95 432.37 713.047 434.793 715.951C437.297 718.773 438.549 722.645 438.549 727.565C438.549 731.517 437.378 735.066 435.036 738.211C432.774 741.357 429.503 743.857 425.222 745.712C421.021 747.487 416.054 748.374 410.319 748.374Z" fill="#042467"/>
<path d="M520.936 713.531C520.936 706.514 522.39 700.384 525.298 695.142C528.206 689.899 532.244 685.866 537.414 683.043C542.664 680.22 548.641 678.809 555.346 678.809C563.988 678.809 571.258 681.188 577.154 685.947C583.051 690.625 586.847 697.198 588.544 705.667H563.342C561.888 701.231 559.061 699.013 554.861 699.013C551.872 699.013 549.49 700.263 547.713 702.763C546.016 705.183 545.168 708.772 545.168 713.531C545.168 718.29 546.016 721.919 547.713 724.419C549.49 726.92 551.872 728.17 554.861 728.17C559.142 728.17 561.969 725.952 563.342 721.516H588.544C586.847 729.904 583.051 736.477 577.154 741.236C571.258 745.994 563.988 748.374 555.346 748.374C548.641 748.374 542.664 746.962 537.414 744.139C532.244 741.316 528.206 737.284 525.298 732.041C522.39 726.799 520.936 720.629 520.936 713.531Z" fill="#042467"/>
<path d="M639.482 679.051C647.236 679.051 653.375 681.672 657.898 686.915C662.502 692.077 664.804 699.094 664.804 707.966V747.527H641.057V711.111C641.057 707.24 640.047 704.215 638.028 702.038C636.009 699.779 633.303 698.65 629.91 698.65C626.356 698.65 623.569 699.779 621.55 702.038C619.531 704.215 618.521 707.24 618.521 711.111V747.527H594.774V658H618.521V689.334C620.621 686.27 623.448 683.81 627.002 681.954C630.637 680.019 634.797 679.051 639.482 679.051Z" fill="#042467"/>
<path d="M670.323 713.531C670.323 706.514 671.575 700.384 674.079 695.142C676.663 689.899 680.137 685.866 684.498 683.043C688.941 680.22 693.868 678.809 699.28 678.809C703.965 678.809 708.003 679.736 711.396 681.592C714.788 683.447 717.414 685.947 719.271 689.092V679.656H743.019V747.527H719.271V738.09C717.414 741.236 714.748 743.736 711.275 745.591C707.882 747.446 703.884 748.374 699.28 748.374C693.868 748.374 688.941 746.962 684.498 744.139C680.137 741.316 676.663 737.284 674.079 732.041C671.575 726.718 670.323 720.548 670.323 713.531ZM719.271 713.531C719.271 709.176 718.06 705.748 715.637 703.247C713.294 700.747 710.386 699.497 706.913 699.497C703.359 699.497 700.411 700.747 698.068 703.247C695.726 705.667 694.555 709.095 694.555 713.531C694.555 717.886 695.726 721.354 698.068 723.935C700.411 726.436 703.359 727.686 706.913 727.686C710.386 727.686 713.294 726.436 715.637 723.935C718.06 721.435 719.271 717.967 719.271 713.531Z" fill="#042467"/>
<path d="M797.382 679.051C805.217 679.051 811.436 681.672 816.04 686.915C820.644 692.077 822.946 699.094 822.946 707.966V747.527H799.199V711.111C799.199 707.24 798.189 704.215 796.17 702.038C794.151 699.779 791.445 698.65 788.052 698.65C784.498 698.65 781.712 699.779 779.692 702.038C777.673 704.215 776.663 707.24 776.663 711.111V747.527H752.916V679.656H776.663V689.334C778.763 686.27 781.591 683.81 785.145 681.954C788.699 680.019 792.778 679.051 797.382 679.051Z" fill="#042467"/>
<path d="M857.422 678.809C862.026 678.809 866.025 679.736 869.417 681.592C872.89 683.447 875.556 685.947 877.414 689.092V679.656H901.161V746.801C901.161 753.173 899.949 758.899 897.526 763.981C895.103 769.142 891.307 773.256 886.137 776.321C881.048 779.386 874.587 780.918 866.752 780.918C856.251 780.918 847.851 778.458 841.55 773.538C835.25 768.618 831.656 761.924 830.767 753.455H854.151C854.636 755.633 855.847 757.326 857.786 758.536C859.724 759.746 862.228 760.351 865.298 760.351C873.375 760.351 877.414 755.834 877.414 746.801V738.09C875.556 741.236 872.89 743.736 869.417 745.591C866.025 747.446 862.026 748.374 857.422 748.374C852.01 748.374 847.083 746.962 842.641 744.139C838.279 741.316 834.806 737.284 832.221 732.041C829.717 726.718 828.465 720.548 828.465 713.531C828.465 706.514 829.717 700.384 832.221 695.142C834.806 689.899 838.279 685.866 842.641 683.043C847.083 680.22 852.01 678.809 857.422 678.809ZM877.414 713.531C877.414 709.176 876.202 705.748 873.779 703.247C871.436 700.747 868.529 699.497 865.055 699.497C861.501 699.497 858.553 700.747 856.211 703.247C853.868 705.667 852.697 709.095 852.697 713.531C852.697 717.886 853.868 721.354 856.211 723.935C858.553 726.436 861.501 727.686 865.055 727.686C868.529 727.686 871.436 726.436 873.779 723.935C876.202 721.435 877.414 717.967 877.414 713.531Z" fill="#042467"/>
<path d="M976 712.805C976 714.66 975.879 716.515 975.637 718.37H930.686C930.928 722.08 931.938 724.863 933.715 726.718C935.573 728.492 937.915 729.38 940.742 729.38C944.7 729.38 947.527 727.605 949.224 724.056H974.546C973.496 728.734 971.436 732.928 968.367 736.638C965.378 740.268 961.582 743.131 956.978 745.228C952.374 747.325 947.285 748.374 941.712 748.374C935.008 748.374 929.03 746.962 923.78 744.139C918.611 741.316 914.532 737.284 911.543 732.041C908.635 726.799 907.181 720.629 907.181 713.531C907.181 706.433 908.635 700.303 911.543 695.142C914.451 689.899 918.489 685.866 923.659 683.043C928.909 680.22 934.927 678.809 941.712 678.809C948.416 678.809 954.353 680.18 959.522 682.922C964.692 685.665 968.73 689.617 971.638 694.779C974.546 699.86 976 705.869 976 712.805ZM951.768 706.877C951.768 703.973 950.799 701.715 948.86 700.102C946.922 698.408 944.498 697.561 941.591 697.561C938.683 697.561 936.3 698.368 934.442 699.981C932.584 701.513 931.373 703.812 930.807 706.877H951.768Z" fill="#042467"/>
<path d="M498.993 690.705L517 659.705H496.859L489 673.244L498.993 690.705Z" fill="#127BBF"/>
<path fill-rule="evenodd" clip-rule="evenodd" d="M499.009 694.519L487 673.268L495.751 658H519.956L499.009 694.519ZM516.333 660.095H496.971L489.417 673.275L499.023 690.274L516.333 660.095Z" fill="#127BBF"/>
<path d="M469 719.205L476.5 731.705L468.634 745.705H447L465.5 713.205L469 719.205Z" fill="#127BBF"/>
<path fill-rule="evenodd" clip-rule="evenodd" d="M478.093 731.78L469.118 747.071L444.246 747.009L465.582 710.552L478.093 731.78ZM475.597 731.782L467.859 744.965L447.964 744.915L465.589 714.798L475.597 731.782Z" fill="#127BBF"/>
<path d="M517.5 745.705H496.142L447 659.705H468.5L517.5 745.705Z" fill="#127BBF"/>
<path fill-rule="evenodd" clip-rule="evenodd" d="M519.956 747.071H495.363L444.246 658H468.768L519.956 747.071ZM516.278 744.95L467.527 660.121H447.921L496.605 744.95H516.278Z" fill="#127BBF"/>
<path d="M1122.33 747.705C1115.17 747.705 1108.72 746.226 1102.96 743.269C1097.21 740.312 1092.69 736.205 1089.4 730.948C1086.19 725.691 1084.59 719.735 1084.59 713.082C1084.59 706.51 1086.19 700.596 1089.4 695.339C1092.69 690.082 1097.17 686.016 1102.84 683.141C1108.6 680.184 1115.09 678.705 1122.33 678.705C1129.56 678.705 1136.06 680.184 1141.81 683.141C1147.57 686.016 1152.05 690.082 1155.26 695.339C1158.46 700.514 1160.07 706.428 1160.07 713.082C1160.07 719.735 1158.46 725.691 1155.26 730.948C1152.05 736.205 1147.57 740.312 1141.81 743.269C1136.06 746.226 1129.56 747.705 1122.33 747.705ZM1122.33 729.1C1126.44 729.1 1129.81 727.703 1132.44 724.91C1135.07 722.035 1136.39 718.092 1136.39 713.082C1136.39 708.153 1135.07 704.292 1132.44 701.5C1129.81 698.707 1126.44 697.31 1122.33 697.31C1118.22 697.31 1114.84 698.707 1112.21 701.5C1109.58 704.292 1108.27 708.153 1108.27 713.082C1108.27 718.092 1109.58 722.035 1112.21 724.91C1114.84 727.703 1118.22 729.1 1122.33 729.1Z" fill="#042467"/>
<path d="M1253.99 678.705C1262.21 678.705 1268.75 681.169 1273.6 686.098C1278.53 691.026 1281 698.46 1281 708.4V746.596H1257.57V712.219C1257.57 707.537 1256.66 704.087 1254.85 701.869C1253.13 699.651 1250.66 698.542 1247.45 698.542C1243.92 698.542 1241.08 699.775 1238.94 702.239C1236.81 704.703 1235.74 708.441 1235.74 713.451V746.596H1212.31V712.219C1212.31 703.101 1208.93 698.542 1202.19 698.542C1198.57 698.542 1195.7 699.775 1193.56 702.239C1191.42 704.703 1190.35 708.441 1190.35 713.451V746.596H1166.92V679.814H1189.24V686.837C1191.71 684.126 1194.63 682.114 1198 680.8C1201.45 679.403 1205.19 678.705 1209.22 678.705C1213.91 678.705 1218.1 679.567 1221.8 681.292C1225.5 683.017 1228.5 685.646 1230.8 689.178C1233.44 685.81 1236.77 683.223 1240.79 681.416C1244.82 679.609 1249.22 678.705 1253.99 678.705Z" fill="#042467"/>
<path d="M1016.92 696.972L1016.92 696.972L1016.92 696.976C1014.3 701.958 1013 707.627 1013 713.955C1013 720.342 1014.3 726.068 1016.92 731.109L1016.92 731.115L1016.93 731.121C1019.61 736.104 1023.4 740.018 1028.28 742.848L1028.28 742.848L1028.29 742.853C1033.18 745.627 1038.79 747 1045.08 747C1053.05 747 1059.83 744.863 1065.35 740.539L1065.35 740.534C1070.86 736.152 1074.4 730.229 1075.98 722.822L1076.24 721.614H1075H1056.32H1055.69L1055.41 722.187C1054.37 724.414 1052.92 726.073 1051.1 727.21L1051.1 727.21L1051.09 727.217C1049.32 728.351 1047.24 728.933 1044.81 728.933C1041.07 728.933 1038.14 727.619 1035.93 725.011C1033.76 722.321 1032.62 718.67 1032.62 713.955C1032.62 709.297 1033.76 705.708 1035.93 703.079C1038.15 700.407 1041.07 699.067 1044.81 699.067C1047.24 699.067 1049.32 699.649 1051.09 700.783L1051.09 700.783L1051.1 700.79C1052.92 701.927 1054.37 703.586 1055.41 705.813L1055.69 706.386H1056.32H1075H1076.24L1075.98 705.178C1074.4 697.772 1070.86 691.876 1065.35 687.553C1059.84 683.168 1053.06 681 1045.08 681C1038.79 681 1033.18 682.404 1028.29 685.238C1023.4 688.012 1019.61 691.93 1016.92 696.972Z" fill="#042467" stroke="#042467" stroke-width="2"/>
<circle cx="993" cy="737.705" r="10" fill="#042467"/>
</svg>
