<svg width="1443" height="369" viewBox="0 0 1443 369" fill="none" xmlns="http://www.w3.org/2000/svg">
<rect width="1443" height="369" fill="white"/>
<path fill-rule="evenodd" clip-rule="evenodd" d="M284.47 138.11C284.47 138.11 284.404 139.724 284.393 141.58C284.382 143.437 284.349 144.974 284.338 144.996C284.316 145.018 283.635 144.952 282.822 144.842C280.11 144.502 275.793 144.238 272.443 144.205C269.412 144.183 269.072 144.205 268.424 144.436C267.534 144.766 266.655 145.589 266.469 146.292C266.37 146.655 266.337 152.509 266.359 165.886C266.392 184.513 266.403 184.974 266.644 185.545C266.787 185.864 266.93 186.16 266.974 186.193C267.018 186.226 267.15 186.413 267.27 186.611C267.578 187.094 268.49 187.687 269.181 187.852C269.5 187.929 270.521 188.028 271.455 188.071C273.893 188.181 278.868 188.511 281.592 188.73C282.877 188.84 284.041 188.917 284.162 188.917C284.371 188.917 284.382 189.411 284.382 195.749V202.58L283.437 202.503C282.921 202.459 281.559 202.36 280.417 202.283C273.344 201.822 271.883 201.635 270.159 201.02C269.181 200.669 267.798 199.966 267.172 199.505C266.952 199.351 266.677 199.175 266.557 199.131C266.337 199.054 266.326 199.669 266.326 210.927V222.811H267.589C268.281 222.811 271.488 222.899 274.706 223.008C277.924 223.107 281.416 223.195 282.46 223.206H284.371L284.404 226.358L284.437 229.51H295.991L296.057 226.457L296.123 223.404L301.768 223.305C304.876 223.25 308.731 223.107 310.346 222.997C311.949 222.888 313.652 222.767 314.113 222.734C314.574 222.701 315.244 222.624 315.607 222.558C315.969 222.492 316.727 222.437 317.298 222.426C318.814 222.415 321.098 221.987 321.988 221.548C322.943 221.086 324.206 219.834 324.667 218.912C325.612 217.001 325.854 214.002 325.832 204.304C325.821 196.32 325.535 189.521 324.942 183.524C324.7 181.031 324.481 180.449 323.35 179.406C321.922 178.088 318.133 176.462 313.849 175.342C309.522 174.211 303.91 173.211 298.528 172.607C297.496 172.487 296.518 172.366 296.353 172.344L296.057 172.289L296.035 168.95C296.035 167.116 296.002 164.919 295.991 164.063L295.969 162.525L296.628 162.613C296.99 162.657 297.55 162.734 297.869 162.767C298.188 162.8 298.978 162.942 299.626 163.074C300.274 163.206 301.263 163.415 301.834 163.535C304.184 164.019 307.183 164.744 309.357 165.359C310.214 165.6 310.961 165.798 311.016 165.798C311.169 165.798 311.136 165.468 310.939 164.985C310.84 164.755 310.631 164.238 310.477 163.843C309.808 162.119 308.588 159.516 307.765 158.066C307.523 157.638 307.15 156.968 306.93 156.572C306.403 155.617 304.492 152.75 304.349 152.695C304.283 152.673 304.239 152.596 304.239 152.53C304.239 152.421 303.404 151.256 303.218 151.114C303.174 151.081 302.789 150.619 302.361 150.081C301.669 149.225 301.46 149.06 300.538 148.632C299.473 148.137 298.155 147.665 296.815 147.292L296.068 147.083V138H290.291C287.117 138 284.492 138.044 284.459 138.099L284.47 138.11ZM254.958 144.129C245.722 144.403 236.749 145.216 230.082 146.391C229.544 146.49 228.874 146.6 228.588 146.655C227.721 146.797 226.469 147.874 225.469 149.312C225.271 149.609 225.129 149.873 225.162 149.906C225.195 149.939 226.007 149.851 226.963 149.708C230.005 149.258 235.672 148.675 240.197 148.346C245.14 147.984 247.128 147.885 252.015 147.753C254.695 147.676 258.133 147.588 259.648 147.544L262.416 147.467L262.383 145.765L262.35 144.063H260.406C259.33 144.041 256.88 144.085 254.947 144.139L254.958 144.129ZM225.865 147.215C224.942 147.599 224.525 147.918 223.426 149.06C222.405 150.114 220.604 152.41 219.505 154.046C219.22 154.463 218.912 154.837 218.824 154.87C218.737 154.903 218.66 155.024 218.66 155.122C218.66 155.221 218.418 155.759 218.122 156.309C216.705 158.934 215.024 162.437 215.024 162.756C215.024 162.855 214.969 162.975 214.904 163.019C214.838 163.063 214.728 163.283 214.651 163.513C214.585 163.744 214.398 164.249 214.245 164.645C213.882 165.578 213.201 167.61 212.674 169.323C212.443 170.07 212.048 171.092 211.795 171.586C211.345 172.465 211.301 172.509 209.643 173.574C208.709 174.178 207.787 174.782 207.6 174.914C207.402 175.046 207.226 175.166 207.193 175.166C207.095 175.166 204.25 177.056 202.822 178.077C201.142 179.274 200.406 179.944 200.307 180.361C199.945 181.987 199.297 189.345 199.055 194.716C198.956 196.935 199 210.411 199.11 212.64C199.275 215.814 199.549 218.472 199.912 220.46L200.131 221.657L200.779 221.8C201.131 221.877 202.394 221.998 203.58 222.064C204.766 222.13 206.732 222.251 207.94 222.316C215.453 222.778 230.346 223.217 230.346 222.975C230.346 222.899 231.521 222.602 232.751 222.36C233.036 222.305 234.003 222.261 234.893 222.272C236.902 222.283 247.863 222.547 253.201 222.712C255.376 222.778 258.352 222.833 259.791 222.833H262.427L262.394 220.592L262.361 218.352L258.528 218.33C253.553 218.297 243.24 218.077 237.88 217.89C234.904 217.791 233.586 217.693 233.399 217.583C233.146 217.418 232.905 217.001 232.246 215.551C231.872 214.738 231.828 214.409 232.059 214.178C232.18 214.057 235.738 214.024 247.303 214.024H262.394L262.449 204.513C262.482 198.802 262.449 194.936 262.383 194.837C262.317 194.749 262.306 194.376 262.361 193.991C262.493 193.025 262.493 193.475 262.46 180.076L262.427 167.885L254.475 167.962C245.81 168.049 236.628 168.236 230.609 168.456C228.5 168.533 224.36 168.632 221.405 168.665L216.035 168.73L216.123 167.907C216.43 165.15 219.165 157.55 219.857 157.539C220.076 157.539 220.131 157.363 220.087 156.803C220.077 156.649 220.131 156.484 220.208 156.44C220.285 156.397 220.351 156.199 220.351 156.001C220.351 155.781 220.483 155.518 220.67 155.342C220.845 155.177 221.153 154.738 221.34 154.376C221.845 153.431 221.933 153.266 222.35 152.607C223.767 150.367 224.986 148.763 226.073 147.698C226.798 146.995 226.743 146.885 225.865 147.259V147.215ZM283.888 161.482L284.371 161.559V171.421L283.042 171.322C281.493 171.213 280.79 170.938 280.23 170.235C279.714 169.576 279.582 168.807 279.483 165.677C279.407 163.195 279.418 162.898 279.637 162.415C280 161.613 280.516 161.394 282.097 161.394C282.811 161.394 283.613 161.427 283.888 161.471V161.482ZM207.161 180.746C210.983 180.943 215.277 181.57 218.396 182.393C220.626 182.975 220.911 183.063 222.427 183.579C224.854 184.403 226.853 185.282 229.05 186.479C230.291 187.16 232.553 188.774 232.553 188.983C232.553 189.324 227.83 191.125 226.952 191.125C226.688 191.125 226.447 191.18 226.403 191.235C226.37 191.289 225.996 191.322 225.579 191.3C225.162 191.278 224.327 191.235 223.723 191.202C222.504 191.136 219.527 190.839 216.902 190.521C214.201 190.191 213.827 190.224 212.202 190.938C211.675 191.169 210.994 191.169 210.082 190.938C209.687 190.839 208.863 190.619 208.259 190.466C205.557 189.774 204.766 189.093 204.217 186.94C203.964 185.974 203.942 185.633 204.008 183.59C204.074 181.339 204.206 180.603 204.525 180.603C204.612 180.603 205.799 180.658 207.161 180.735V180.746ZM298.605 190.565C299.319 190.663 300.164 190.806 300.483 190.872C300.801 190.938 301.296 191.026 301.592 191.07C301.878 191.114 302.526 191.235 303.02 191.344C305.557 191.894 306.172 192.08 306.37 192.399C306.436 192.498 306.6 192.531 306.787 192.487C307.424 192.322 310.016 193.431 310.719 194.156C311.114 194.562 311.136 194.639 311.334 196.539C311.444 197.616 311.532 199.065 311.532 199.757C311.532 201.811 311.027 202.426 309.094 202.701C308.522 202.789 305.513 202.877 302.086 202.909L296.079 202.975V190.202L296.694 190.279C297.034 190.323 297.891 190.444 298.605 190.554V190.565ZM203.273 204.304C203.415 204.348 203.997 204.458 204.569 204.568C205.766 204.788 207.83 205.205 209.05 205.479C209.511 205.589 211.389 205.996 213.201 206.391C215.024 206.786 217.803 207.434 219.374 207.841C220.944 208.236 222.438 208.61 222.69 208.665C223.569 208.873 224.788 209.291 225.14 209.521C225.897 210.004 226.842 211.191 227.413 212.355C228.457 214.497 228.676 215.803 228.083 216.397C227.787 216.693 227.666 216.715 226.502 216.715C225.81 216.715 224.448 216.627 223.47 216.517C219.593 216.078 216.496 215.661 214.695 215.342C213.212 215.079 212.883 215.101 212.465 215.496C212.169 215.771 212.015 215.814 211.642 215.76C211.389 215.716 210.796 215.628 210.335 215.551C209.862 215.485 208.984 215.254 208.391 215.046C205.348 214.002 203.789 212.256 203.031 209.049C202.767 207.918 202.46 205.007 202.537 204.271C202.537 204.172 202.647 204.129 202.778 204.162C202.899 204.194 203.119 204.26 203.262 204.293L203.273 204.304ZM199.374 222.69C199.736 228.39 200.131 230.795 200.746 231.136C200.9 231.213 203.844 231.268 208.643 231.268C214.871 231.268 216.331 231.235 216.441 231.092C216.869 230.576 217.243 228.302 217.441 225.084L217.528 223.645L215.464 223.557C210.796 223.36 202.108 222.8 200.483 222.591C199.802 222.503 199.769 222.481 199.637 222.02C199.374 221.097 199.275 221.339 199.363 222.69H199.374Z" fill="#127BBF"/>
<path fill-rule="evenodd" clip-rule="evenodd" d="M254.958 143.986C245.722 144.26 236.749 145.073 230.082 146.248C229.544 146.347 228.874 146.457 228.588 146.512C227.721 146.655 226.469 147.731 225.469 149.17C225.271 149.466 225.129 149.73 225.162 149.763C225.195 149.796 226.007 149.708 226.963 149.565C230.005 149.115 235.672 148.533 240.197 148.203C245.14 147.841 247.128 147.742 252.015 147.61C254.695 147.533 258.133 147.445 259.648 147.401L262.416 147.325L262.383 145.622L262.35 143.92H260.406C259.33 143.898 256.88 143.942 254.947 143.997L254.958 143.986ZM225.865 147.072C224.942 147.456 224.525 147.775 223.426 148.917C222.405 149.971 220.604 152.267 219.505 153.903C219.22 154.321 218.923 154.694 218.824 154.727C218.737 154.76 218.66 154.881 218.66 154.98C218.66 155.079 218.418 155.617 218.122 156.166C216.705 158.791 215.024 162.294 215.024 162.613C215.024 162.712 214.969 162.833 214.904 162.876C214.838 162.92 214.728 163.14 214.651 163.371C214.585 163.601 214.398 164.107 214.245 164.502C213.882 165.436 213.201 167.467 212.674 169.181C212.443 169.928 212.048 170.949 211.795 171.443C211.345 172.322 211.301 172.366 209.643 173.431C208.709 174.035 207.787 174.639 207.6 174.771C207.402 174.903 207.226 175.024 207.193 175.024C207.095 175.024 204.25 176.913 202.822 177.934C201.142 179.131 200.406 179.801 200.307 180.219C199.945 181.844 199.297 189.203 199.055 194.573C198.956 196.792 199 210.268 199.11 212.498C199.275 215.672 199.549 218.33 199.912 220.317L200.131 221.515L200.779 221.657C201.131 221.734 202.394 221.855 203.58 221.921C204.766 221.987 206.732 222.108 207.94 222.174C215.453 222.635 230.346 223.074 230.346 222.833C230.346 222.756 231.521 222.459 232.751 222.218C233.036 222.163 234.003 222.119 234.893 222.13C236.902 222.141 247.863 222.404 253.201 222.569C255.376 222.635 258.352 222.69 259.791 222.69H262.427L262.394 220.449L262.361 218.209L258.528 218.187C253.553 218.154 243.24 217.934 237.88 217.747C234.904 217.649 233.586 217.55 233.399 217.44C233.146 217.275 232.905 216.858 232.246 215.408C231.872 214.595 231.828 214.266 232.059 214.035C232.18 213.914 235.738 213.881 247.303 213.881H262.394L262.449 204.37C262.482 198.659 262.449 194.793 262.383 194.694C262.317 194.606 262.306 194.233 262.361 193.849C262.493 192.882 262.493 193.332 262.46 179.933L262.427 167.742L254.475 167.819C245.81 167.907 236.628 168.093 230.609 168.313C228.5 168.39 224.36 168.489 221.405 168.522L216.035 168.588L216.123 167.764C216.43 165.007 219.165 157.407 219.857 157.396C220.076 157.396 220.131 157.22 220.087 156.66C220.077 156.506 220.131 156.342 220.208 156.298C220.285 156.254 220.351 156.056 220.351 155.858C220.351 155.639 220.483 155.375 220.67 155.199C220.845 155.035 221.153 154.595 221.34 154.233C221.845 153.288 221.933 153.124 222.35 152.465C223.767 150.224 224.986 148.621 226.073 147.555C226.798 146.852 226.743 146.742 225.865 147.116V147.072ZM207.161 180.603C210.983 180.801 215.277 181.427 218.396 182.25C220.626 182.833 220.911 182.92 222.427 183.437C224.854 184.26 226.853 185.139 229.05 186.336C230.291 187.017 232.553 188.632 232.553 188.84C232.553 189.181 227.83 190.982 226.952 190.982C226.688 190.982 226.447 191.037 226.403 191.092C226.37 191.147 225.996 191.18 225.579 191.158C225.162 191.136 224.327 191.092 223.723 191.059C222.504 190.993 219.527 190.696 216.902 190.378C214.201 190.048 213.827 190.081 212.213 190.795C211.686 191.026 211.005 191.026 210.093 190.795C209.698 190.696 208.874 190.477 208.27 190.323C205.568 189.631 204.777 188.95 204.228 186.797C203.975 185.831 203.953 185.49 204.019 183.448C204.085 181.196 204.217 180.46 204.536 180.46C204.623 180.46 205.81 180.515 207.171 180.592L207.161 180.603ZM203.262 204.162C203.404 204.205 203.986 204.315 204.558 204.425C205.755 204.645 207.819 205.062 209.039 205.337C209.5 205.447 211.378 205.853 213.19 206.248C215.013 206.644 217.792 207.292 219.363 207.698C220.933 208.093 222.427 208.467 222.679 208.522C223.558 208.73 224.777 209.148 225.118 209.378C225.876 209.862 226.82 211.048 227.391 212.212C228.435 214.354 228.654 215.661 228.061 216.254C227.765 216.55 227.644 216.572 226.48 216.572C225.788 216.572 224.426 216.484 223.459 216.375C219.582 215.935 216.485 215.518 214.684 215.199C213.201 214.936 212.872 214.958 212.454 215.353C212.158 215.628 212.004 215.672 211.631 215.617C211.378 215.573 210.785 215.485 210.324 215.408C209.851 215.342 208.973 215.112 208.38 214.903C205.337 213.86 203.778 212.113 203.02 208.906C202.756 207.775 202.449 204.864 202.526 204.129C202.526 204.03 202.636 203.986 202.767 204.019C202.888 204.052 203.108 204.118 203.251 204.151L203.262 204.162ZM199.363 222.547C199.725 228.247 200.12 230.652 200.735 230.993C200.889 231.07 203.833 231.125 208.632 231.125C214.86 231.125 216.309 231.092 216.43 230.949C216.858 230.433 217.232 228.159 217.43 224.941L217.517 223.503L215.453 223.415C210.796 223.217 202.097 222.657 200.472 222.448C199.791 222.36 199.758 222.338 199.626 221.877C199.363 220.955 199.264 221.196 199.352 222.547H199.363Z" fill="#042467"/>
<path d="M226.524 146.962C224.239 147.478 218.814 161.548 216.397 168.522C214.97 169.389 212.136 171.092 212.246 170.993C212.378 170.213 214.069 164.502 214.585 163.074C215.101 161.646 218.221 155.672 220.823 151.52C222.899 148.192 225.502 147.105 226.535 146.973L226.524 146.962Z" fill="#042467"/>
<path d="M369 185.484C369 178.931 370.357 173.102 373.07 167.998C375.847 162.831 379.759 158.83 384.808 155.994C389.856 153.096 395.662 151.646 402.224 151.646C410.554 151.646 417.559 153.883 423.238 158.357C428.917 162.768 432.577 168.786 434.218 176.41H414.246C413.047 173.89 411.374 171.968 409.229 170.644C407.146 169.321 404.717 168.66 401.94 168.66C397.649 168.66 394.21 170.203 391.623 173.291C389.099 176.316 387.837 180.38 387.837 185.484C387.837 190.651 389.099 194.778 391.623 197.866C394.21 200.89 397.649 202.402 401.94 202.402C404.717 202.402 407.146 201.741 409.229 200.417C411.374 199.094 413.047 197.172 414.246 194.652H434.218C432.577 202.276 428.917 208.325 423.238 212.799C417.559 217.21 410.554 219.415 402.224 219.415C395.662 219.415 389.856 217.998 384.808 215.162C379.759 212.264 375.847 208.262 373.07 203.158C370.357 197.992 369 192.1 369 185.484Z" fill="#042467"/>
<path d="M437.135 192.383C437.135 186.901 438.113 182.113 440.069 178.017C442.088 173.921 444.802 170.771 448.21 168.565C451.68 166.36 455.53 165.257 459.758 165.257C463.418 165.257 466.573 165.982 469.223 167.431C471.874 168.88 473.925 170.834 475.376 173.291V165.919H493.929V218.943H475.376V211.571C473.925 214.028 471.842 215.981 469.129 217.431C466.478 218.88 463.355 219.605 459.758 219.605C455.53 219.605 451.68 218.502 448.21 216.296C444.802 214.091 442.088 210.94 440.069 206.845C438.113 202.686 437.135 197.866 437.135 192.383ZM475.376 192.383C475.376 188.981 474.429 186.303 472.536 184.35C470.706 182.396 468.434 181.419 465.721 181.419C462.944 181.419 460.641 182.396 458.811 184.35C456.981 186.24 456.066 188.918 456.066 192.383C456.066 195.786 456.981 198.496 458.811 200.512C460.641 202.465 462.944 203.442 465.721 203.442C468.434 203.442 470.706 202.465 472.536 200.512C474.429 198.559 475.376 195.849 475.376 192.383Z" fill="#042467"/>
<path d="M520.213 175.276C522.296 172.251 524.82 169.857 527.786 168.093C530.752 166.328 533.939 165.446 537.346 165.446V185.2H532.14C528.101 185.2 525.104 185.988 523.148 187.563C521.192 189.138 520.213 191.879 520.213 195.786V218.943H501.661V165.919H520.213V175.276Z" fill="#042467"/>
<path d="M563.78 219.605C558.985 219.605 554.693 218.817 550.907 217.242C547.184 215.603 544.218 213.398 542.01 210.625C539.864 207.79 538.665 204.608 538.413 201.079H556.397C556.65 202.78 557.438 204.104 558.764 205.049C560.089 205.994 561.73 206.467 563.686 206.467C565.2 206.467 566.399 206.152 567.283 205.521C568.166 204.891 568.608 204.072 568.608 203.064C568.608 201.741 567.882 200.764 566.431 200.134C564.979 199.504 562.581 198.811 559.237 198.055C555.451 197.298 552.295 196.448 549.771 195.503C547.247 194.557 545.038 193.014 543.145 190.871C541.315 188.729 540.4 185.83 540.4 182.176C540.4 179.025 541.252 176.19 542.956 173.669C544.66 171.086 547.152 169.038 550.434 167.525C553.778 166.013 557.786 165.257 562.455 165.257C569.397 165.257 574.855 166.958 578.831 170.361C582.806 173.764 585.11 178.237 585.741 183.782H568.987C568.671 182.081 567.914 180.789 566.715 179.907C565.579 178.962 564.033 178.489 562.077 178.489C560.562 178.489 559.395 178.773 558.574 179.34C557.817 179.907 557.438 180.695 557.438 181.703C557.438 182.963 558.164 183.94 559.616 184.633C561.067 185.263 563.402 185.925 566.62 186.618C570.469 187.437 573.656 188.351 576.18 189.359C578.768 190.367 581.008 192.005 582.901 194.274C584.857 196.479 585.835 199.504 585.835 203.348C585.835 206.435 584.92 209.208 583.09 211.665C581.323 214.123 578.768 216.076 575.423 217.525C572.142 218.911 568.261 219.605 563.78 219.605Z" fill="#042467"/>
<path d="M650.2 192.383C650.2 186.901 651.336 182.113 653.608 178.017C655.88 173.921 659.035 170.771 663.073 168.565C667.175 166.36 671.845 165.257 677.083 165.257C683.835 165.257 689.514 167.116 694.121 170.834C698.727 174.488 701.693 179.624 703.018 186.24H683.33C682.194 182.774 679.985 181.041 676.704 181.041C674.369 181.041 672.507 182.018 671.119 183.971C669.794 185.862 669.131 188.666 669.131 192.383C669.131 196.101 669.794 198.937 671.119 200.89C672.507 202.843 674.369 203.82 676.704 203.82C680.048 203.82 682.257 202.087 683.33 198.622H703.018C701.693 205.175 698.727 210.31 694.121 214.028C689.514 217.746 683.835 219.605 677.083 219.605C671.845 219.605 667.175 218.502 663.073 216.296C659.035 214.091 655.88 210.94 653.608 206.845C651.336 202.749 650.2 197.929 650.2 192.383Z" fill="#042467"/>
<path d="M742.814 165.446C748.872 165.446 753.668 167.494 757.202 171.59C760.799 175.622 762.597 181.104 762.597 188.036V218.943H744.044V190.493C744.044 187.469 743.256 185.106 741.678 183.404C740.1 181.64 737.986 180.758 735.336 180.758C732.559 180.758 730.382 181.64 728.805 183.404C727.227 185.106 726.438 187.469 726.438 190.493V218.943H707.886V149H726.438V173.48C728.079 171.086 730.288 169.164 733.064 167.714C735.904 166.202 739.154 165.446 742.814 165.446Z" fill="#042467"/>
<path d="M766.908 192.383C766.908 186.901 767.886 182.113 769.843 178.017C771.862 173.921 774.576 170.771 777.983 168.565C781.454 166.36 785.303 165.257 789.531 165.257C793.191 165.257 796.346 165.982 798.997 167.431C801.647 168.88 803.698 170.834 805.149 173.291V165.919H823.702V218.943H805.149V211.571C803.698 214.028 801.616 215.981 798.902 217.431C796.252 218.88 793.128 219.605 789.531 219.605C785.303 219.605 781.454 218.502 777.983 216.296C774.576 214.091 771.862 210.94 769.843 206.845C767.886 202.686 766.908 197.866 766.908 192.383ZM805.149 192.383C805.149 188.981 804.203 186.303 802.31 184.35C800.48 182.396 798.208 181.419 795.495 181.419C792.718 181.419 790.415 182.396 788.585 184.35C786.755 186.24 785.84 188.918 785.84 192.383C785.84 195.786 786.755 198.496 788.585 200.512C790.415 202.465 792.718 203.442 795.495 203.442C798.208 203.442 800.48 202.465 802.31 200.512C804.203 198.559 805.149 195.849 805.149 192.383Z" fill="#042467"/>
<path d="M866.173 165.446C872.294 165.446 877.153 167.494 880.75 171.59C884.347 175.622 886.146 181.104 886.146 188.036V218.943H867.593V190.493C867.593 187.469 866.804 185.106 865.227 183.404C863.649 181.64 861.535 180.758 858.885 180.758C856.108 180.758 853.931 181.64 852.353 183.404C850.776 185.106 849.987 187.469 849.987 190.493V218.943H831.434V165.919H849.987V173.48C851.628 171.086 853.836 169.164 856.613 167.714C859.389 166.202 862.576 165.446 866.173 165.446Z" fill="#042467"/>
<path d="M913.08 165.257C916.677 165.257 919.8 165.982 922.451 167.431C925.164 168.88 927.247 170.834 928.698 173.291V165.919H947.251V218.376C947.251 223.354 946.304 227.828 944.411 231.797C942.518 235.83 939.552 239.044 935.513 241.438C931.538 243.832 926.489 245.03 920.368 245.03C912.165 245.03 905.602 243.108 900.68 239.264C895.758 235.42 892.95 230.19 892.255 223.574H910.524C910.903 225.276 911.849 226.599 913.364 227.544C914.878 228.489 916.835 228.962 919.233 228.962C925.543 228.962 928.698 225.433 928.698 218.376V211.571C927.247 214.028 925.164 215.981 922.451 217.431C919.8 218.88 916.677 219.605 913.08 219.605C908.852 219.605 905.003 218.502 901.532 216.296C898.124 214.091 895.411 210.94 893.391 206.845C891.435 202.686 890.457 197.866 890.457 192.383C890.457 186.901 891.435 182.113 893.391 178.017C895.411 173.921 898.124 170.771 901.532 168.565C905.003 166.36 908.852 165.257 913.08 165.257ZM928.698 192.383C928.698 188.981 927.752 186.303 925.858 184.35C924.028 182.396 921.757 181.419 919.043 181.419C916.267 181.419 913.963 182.396 912.133 184.35C910.303 186.24 909.388 188.918 909.388 192.383C909.388 195.786 910.303 198.496 912.133 200.512C913.963 202.465 916.267 203.442 919.043 203.442C921.757 203.442 924.028 202.465 925.858 200.512C927.752 198.559 928.698 195.849 928.698 192.383Z" fill="#042467"/>
<path d="M1005.72 191.816C1005.72 193.266 1005.62 194.715 1005.43 196.164H970.317C970.507 199.063 971.295 201.237 972.684 202.686C974.135 204.072 975.965 204.765 978.174 204.765C981.266 204.765 983.475 203.379 984.8 200.607H1004.58C1003.76 204.261 1002.15 207.538 999.755 210.436C997.421 213.272 994.455 215.509 990.858 217.147C987.261 218.785 983.285 219.605 978.931 219.605C973.693 219.605 969.024 218.502 964.922 216.296C960.883 214.091 957.697 210.94 955.362 206.845C953.09 202.749 951.954 197.929 951.954 192.383C951.954 186.838 953.09 182.05 955.362 178.017C957.633 173.921 960.789 170.771 964.827 168.565C968.929 166.36 973.63 165.257 978.931 165.257C984.169 165.257 988.807 166.328 992.846 168.471C996.884 170.613 1000.04 173.701 1002.31 177.733C1004.58 181.703 1005.72 186.397 1005.72 191.816ZM986.788 187.185C986.788 184.917 986.03 183.152 984.516 181.892C983.001 180.569 981.108 179.907 978.836 179.907C976.565 179.907 974.703 180.537 973.252 181.798C971.8 182.995 970.854 184.791 970.412 187.185H986.788Z" fill="#042467"/>
<path d="M633.057 174.551L647.125 150.332H631.39L625.25 160.909L633.057 174.551Z" fill="#127BBF"/>
<path fill-rule="evenodd" clip-rule="evenodd" d="M633.07 177.531L623.688 160.928L630.524 149H649.435L633.07 177.531ZM646.604 150.636H631.478L625.576 160.934L633.08 174.214L646.604 150.636Z" fill="#127BBF"/>
<path d="M609.625 196.816L615.484 206.582L609.339 217.52H592.438L606.891 192.129L609.625 196.816Z" fill="#127BBF"/>
<path fill-rule="evenodd" clip-rule="evenodd" d="M616.729 206.641L609.717 218.587L590.286 218.538L606.954 190.056L616.729 206.641ZM614.779 206.642L608.734 216.941L593.19 216.902L606.96 193.374L614.779 206.642Z" fill="#127BBF"/>
<path d="M647.516 217.52H630.829L592.438 150.332H609.234L647.516 217.52Z" fill="#127BBF"/>
<path fill-rule="evenodd" clip-rule="evenodd" d="M649.435 218.587H630.221L590.286 149H609.443L649.435 218.587ZM646.561 216.93L608.474 150.657H593.157L631.191 216.93H646.561Z" fill="#127BBF"/>
<path d="M1120.04 219.082C1114.45 219.082 1109.41 217.927 1104.91 215.617C1100.41 213.306 1096.88 210.098 1094.31 205.991C1091.81 201.883 1090.55 197.231 1090.55 192.033C1090.55 186.899 1091.81 182.278 1094.31 178.171C1096.88 174.064 1100.38 170.887 1104.81 168.641C1109.31 166.331 1114.38 165.176 1120.04 165.176C1125.69 165.176 1130.76 166.331 1135.26 168.641C1139.76 170.887 1143.26 174.064 1145.76 178.171C1148.27 182.214 1149.52 186.835 1149.52 192.033C1149.52 197.231 1148.27 201.883 1145.76 205.991C1143.26 210.098 1139.76 213.306 1135.26 215.617C1130.76 217.927 1125.69 219.082 1120.04 219.082ZM1120.04 204.547C1123.25 204.547 1125.88 203.456 1127.94 201.274C1129.99 199.028 1131.02 195.947 1131.02 192.033C1131.02 188.182 1129.99 185.166 1127.94 182.984C1125.88 180.802 1123.25 179.711 1120.04 179.711C1116.82 179.711 1114.19 180.802 1112.14 182.984C1110.08 185.166 1109.05 188.182 1109.05 192.033C1109.05 195.947 1110.08 199.028 1112.14 201.274C1114.19 203.456 1116.82 204.547 1120.04 204.547Z" fill="#042467"/>
<path d="M1222.9 165.176C1229.32 165.176 1234.43 167.101 1238.22 170.951C1242.07 174.802 1244 180.61 1244 188.375V218.216H1225.69V191.359C1225.69 187.701 1224.99 185.006 1223.57 183.273C1222.22 181.54 1220.3 180.674 1217.79 180.674C1215.03 180.674 1212.81 181.636 1211.14 183.562C1209.47 185.487 1208.64 188.407 1208.64 192.321V218.216H1190.33V191.359C1190.33 184.235 1187.7 180.674 1182.43 180.674C1179.61 180.674 1177.36 181.636 1175.69 183.562C1174.02 185.487 1173.18 188.407 1173.18 192.321V218.216H1154.88V166.042H1172.31V171.529C1174.24 169.411 1176.52 167.839 1179.16 166.812C1181.85 165.721 1184.78 165.176 1187.92 165.176C1191.59 165.176 1194.86 165.85 1197.75 167.197C1200.64 168.545 1202.99 170.598 1204.79 173.358C1206.84 170.727 1209.44 168.705 1212.59 167.294C1215.74 165.882 1219.17 165.176 1222.9 165.176Z" fill="#042467"/>
<path d="M1037.5 179.344L1037.5 179.344L1037.5 179.348C1035.43 183.276 1034.41 187.74 1034.41 192.715C1034.41 197.735 1035.43 202.244 1037.49 206.217L1037.5 206.223L1037.5 206.23C1039.62 210.158 1042.61 213.245 1046.46 215.477L1046.46 215.477L1046.46 215.482C1050.32 217.67 1054.74 218.75 1059.68 218.75C1065.96 218.75 1071.3 217.069 1075.66 213.655L1075.66 213.651C1080.01 210.193 1082.8 205.519 1084.04 199.688L1084.3 198.479H1083.06H1068.47H1067.83L1067.56 199.053C1066.76 200.759 1065.66 202.021 1064.27 202.884L1064.27 202.884L1064.26 202.892C1062.92 203.752 1061.34 204.198 1059.48 204.198C1056.61 204.198 1054.39 203.196 1052.71 201.213C1051.05 199.161 1050.17 196.363 1050.17 192.715C1050.17 189.112 1051.05 186.362 1052.71 184.357C1054.4 182.324 1056.62 181.302 1059.48 181.302C1061.34 181.302 1062.92 181.748 1064.26 182.608L1064.26 182.608L1064.27 182.616C1065.66 183.479 1066.76 184.741 1067.56 186.447L1067.83 187.021H1068.47H1083.06H1084.3L1084.04 185.812C1082.8 179.981 1080.01 175.329 1075.66 171.917C1071.31 168.456 1065.96 166.75 1059.68 166.75C1054.74 166.75 1050.32 167.854 1046.46 170.09C1042.6 172.278 1039.61 175.369 1037.5 179.344Z" fill="#042467" stroke="#042467" stroke-width="2"/>
<circle cx="1019" cy="211.27" r="7.8125" fill="#042467"/>
</svg>
