<?xml version="1.0" standalone="no"?>
<!DOCTYPE svg PUBLIC "-//W3C//DTD SVG 20010904//EN"
 "http://www.w3.org/TR/2001/REC-SVG-20010904/DTD/svg10.dtd">
<svg version="1.0" xmlns="http://www.w3.org/2000/svg"
 width="850.000000pt" height="850.000000pt" viewBox="0 0 850.000000 850.000000"
 preserveAspectRatio="xMidYMid meet">
<metadata>
Created by potrace 1.14, written by Peter Selinger 2001-2017
</metadata>
<g transform="translate(0.000000,850.000000) scale(0.100000,-0.100000)"
fill="#000000" stroke="none">
<path d="M5741 7351 c-9 -6 -13 -62 -16 -227 -2 -120 -4 -222 -4 -226 -1 -4
-11 -5 -23 -2 -13 2 -48 6 -78 9 -30 3 -73 7 -95 9 -298 30 -768 41 -848 21
-54 -14 -113 -57 -137 -101 -11 -19 -17 -58 -18 -114 -3 -127 -5 -1503 -2
-1515 1 -5 1 -14 0 -20 -1 -5 -1 -57 0 -115 1 -58 1 -111 1 -117 -3 -35 -2
-72 1 -111 2 -24 0 -46 -4 -48 -4 -3 -5 -10 -2 -17 2 -7 6 -139 7 -294 l3
-280 35 -57 c57 -95 120 -122 309 -131 176 -8 360 -20 490 -30 36 -3 97 -8
135 -10 172 -12 211 -17 220 -26 12 -12 15 -880 2 -896 -5 -7 -12 -11 -16 -9
-6 4 -94 12 -241 21 -83 5 -245 16 -300 21 -30 3 -73 6 -95 8 -197 17 -364 70
-490 155 -41 29 -52 26 -54 -11 -4 -54 -7 -1522 -4 -1533 2 -7 61 -12 156 -14
83 -1 208 -4 277 -6 372 -12 459 -14 608 -16 89 -1 163 -5 163 -8 1 -3 3 -82
5 -176 1 -93 3 -186 3 -205 l1 -35 385 0 c212 0 385 0 386 0 0 0 3 90 5 200 3
109 7 202 10 204 3 3 65 7 137 8 376 6 639 15 847 28 52 3 126 8 165 10 38 2
81 7 95 9 24 5 79 10 236 21 39 3 80 8 92 10 46 10 58 13 101 25 127 34 236
158 271 309 13 56 14 62 27 201 13 144 7 1515 -7 1515 -1 0 -3 29 -5 65 -4
104 -16 282 -21 320 -3 19 -7 62 -9 95 -8 111 -25 206 -44 243 -35 69 -115
134 -238 192 -121 58 -333 133 -468 166 -5 1 -39 10 -75 19 -36 8 -72 17 -80
19 -30 8 -166 35 -200 41 -19 3 -42 8 -50 10 -23 7 -117 23 -175 30 -16 2 -30
4 -30 5 0 1 -9 3 -20 4 -11 2 -38 6 -60 10 -22 4 -56 9 -75 11 -19 1 -48 5
-65 8 -16 3 -51 9 -77 12 -27 3 -67 7 -90 10 -24 3 -59 7 -78 9 -19 2 -53 6
-75 10 l-40 7 0 322 0 322 35 -1 c61 -3 123 -12 205 -29 44 -9 94 -19 110 -22
34 -6 40 -7 75 -16 14 -4 36 -9 50 -11 14 -2 45 -9 70 -16 25 -7 56 -14 70
-16 14 -3 33 -7 42 -10 9 -3 25 -7 35 -9 10 -2 36 -9 58 -15 22 -6 47 -12 55
-14 8 -2 42 -11 75 -20 33 -9 71 -19 84 -22 14 -3 28 -7 32 -10 54 -33 -161
454 -284 643 -15 24 -27 47 -27 53 0 5 -4 10 -9 10 -5 0 -13 9 -16 20 -3 11
-12 26 -19 33 -7 7 -25 32 -41 56 -15 25 -31 49 -36 55 -5 6 -26 34 -46 62
-21 29 -64 81 -97 118 -66 75 -118 103 -300 163 -61 20 -113 40 -116 44 -3 4
-4 140 -4 303 l1 297 -376 -1 c-207 -1 -383 -5 -390 -9z m-23 -1568 c4 -6 7
-155 7 -330 l0 -318 -65 1 c-132 2 -188 26 -226 97 -20 37 -23 54 -30 162 -10
151 -10 278 -1 315 12 45 41 72 86 80 56 10 222 5 229 -7z m922 -1927 c59 -7
363 -65 448 -86 40 -10 84 -25 97 -34 13 -9 37 -16 53 -16 33 0 119 -29 155
-53 14 -9 31 -17 36 -17 6 0 26 -14 45 -31 27 -23 36 -41 42 -77 4 -26 8 -56
10 -67 2 -11 7 -80 10 -155 7 -154 -2 -208 -43 -239 -56 -45 -106 -50 -610
-56 -345 -4 -373 -3 -374 13 -1 21 -1 826 0 831 1 2 25 1 54 -3 28 -4 63 -9
77 -10z"/>
<path d="M3767 6953 c-1 -1 -83 -4 -182 -8 -243 -9 -399 -18 -540 -30 -33 -3
-89 -7 -125 -10 -36 -2 -83 -6 -105 -9 -22 -2 -71 -7 -110 -11 -38 -3 -81 -8
-95 -10 -14 -2 -52 -6 -84 -10 -33 -3 -73 -8 -90 -10 -17 -3 -47 -7 -66 -9
-19 -3 -46 -7 -60 -10 -14 -2 -45 -7 -70 -10 -25 -3 -54 -8 -65 -10 -11 -2
-52 -9 -92 -16 -39 -6 -77 -13 -85 -14 -58 -10 -158 -94 -220 -185 -22 -33
-22 -41 0 -37 9 2 44 7 77 10 33 4 71 9 85 11 14 2 43 7 65 9 22 3 58 8 80 10
22 3 67 8 100 11 33 3 78 7 100 10 36 4 103 11 195 20 19 2 69 6 110 9 41 4
102 9 135 12 33 3 92 7 130 9 39 2 104 7 145 10 149 10 421 21 797 31 136 3
282 7 323 9 41 1 89 3 106 4 l30 1 -2 93 c-1 50 -2 102 -3 114 l-1 22 -241 -2
c-132 -1 -241 -3 -242 -4z"/>
<path d="M1784 6735 c-47 -23 -110 -78 -184 -161 -47 -51 -200 -250 -200 -259
0 -3 -6 -12 -12 -19 -37 -36 -67 -89 -161 -276 -56 -113 -113 -230 -126 -260
-12 -30 -31 -74 -41 -96 -17 -38 -127 -358 -135 -394 -6 -23 -40 -111 -59
-151 -24 -52 -54 -77 -206 -173 -74 -47 -139 -89 -145 -93 -5 -5 -48 -33 -95
-63 -47 -30 -89 -58 -95 -62 -236 -174 -224 -160 -240 -273 -4 -22 -8 -51 -10
-65 -2 -14 -6 -54 -9 -90 -6 -65 -11 -126 -22 -250 -3 -36 -7 -83 -9 -105 -1
-22 -7 -92 -11 -155 -5 -63 -9 -412 -9 -775 0 -581 5 -770 21 -905 2 -19 6
-59 9 -88 2 -30 6 -61 9 -70 3 -10 8 -39 12 -67 3 -27 8 -59 11 -70 2 -11 5
-26 5 -32 1 -7 7 -14 15 -14 7 -1 16 -2 21 -3 33 -9 194 -22 372 -31 47 -2
123 -7 170 -10 47 -3 139 -8 205 -10 66 -3 165 -7 220 -10 207 -10 701 -24
880 -25 91 0 145 4 180 15 28 9 64 19 80 23 53 13 686 6 1340 -14 88 -3 279
-6 425 -7 l265 -2 -1 115 c-1 63 -2 131 -3 150 l-1 35 -223 2 c-500 3 -1456
26 -1617 38 -41 3 -82 8 -91 10 -16 5 -72 102 -94 164 -8 24 -10 43 -4 53 11
19 -20 19 1229 21 l805 2 1 1530 c1 842 -1 1535 -3 1541 -3 9 -98 11 -351 9
-595 -6 -1201 -17 -1597 -29 -324 -11 -612 -17 -871 -21 l-282 -4 4 37 c1 20
6 48 9 62 3 14 7 36 10 50 2 14 16 63 30 110 14 47 28 94 30 105 3 11 11 36
19 55 8 19 33 85 56 145 41 107 69 158 97 181 7 6 15 24 17 40 7 50 24 92 49
126 13 18 39 60 57 93 70 126 194 297 282 390 59 62 51 70 -28 30z m-1259
-2230 c142 -6 177 -9 263 -20 31 -4 73 -9 92 -10 47 -4 109 -13 129 -19 9 -3
36 -8 61 -12 25 -3 55 -8 67 -10 13 -3 33 -6 45 -8 131 -24 478 -133 608 -193
128 -58 193 -91 249 -125 34 -21 65 -38 67 -38 4 0 66 -46 123 -90 13 -10 20
-23 17 -29 -7 -10 -109 -61 -122 -61 -3 0 -20 -6 -37 -14 -18 -8 -70 -27 -117
-42 -72 -23 -103 -27 -200 -28 -63 0 -149 3 -190 7 -41 4 -100 10 -130 13 -30
2 -71 7 -90 10 -19 2 -57 6 -85 9 -27 3 -72 8 -100 11 -109 14 -159 11 -241
-16 -93 -32 -122 -31 -256 5 -51 14 -101 27 -110 29 -39 10 -105 45 -129 67
-25 24 -66 99 -74 135 -2 11 -7 37 -12 59 -14 58 -4 325 13 369 3 8 11 13 17
11 7 -2 70 -7 142 -10z m-195 -1582 c14 -2 44 -8 67 -14 24 -5 46 -8 50 -7 5
0 15 -2 23 -5 8 -3 40 -11 70 -16 30 -6 66 -13 80 -16 32 -7 117 -25 150 -31
14 -3 39 -9 55 -14 17 -5 55 -14 85 -19 30 -6 64 -13 75 -16 49 -11 162 -37
180 -41 11 -2 85 -20 165 -40 80 -19 152 -37 160 -39 97 -21 217 -58 259 -79
31 -16 102 -91 121 -127 7 -13 16 -26 19 -29 11 -8 58 -122 73 -175 23 -81 13
-127 -30 -143 -27 -11 -178 -9 -270 3 -95 12 -118 14 -177 20 -33 3 -67 8 -75
10 -8 3 -37 7 -65 10 -27 2 -66 7 -85 9 -19 3 -55 8 -79 11 -25 3 -47 8 -50
10 -9 5 -122 18 -162 18 -22 0 -47 -8 -63 -21 -15 -11 -33 -19 -39 -17 -7 2
-32 7 -57 10 -76 11 -83 13 -155 35 -137 43 -228 106 -287 200 -12 19 -25 37
-28 40 -6 5 -36 76 -39 92 -1 4 -3 13 -5 20 -3 7 -7 24 -10 38 -3 14 -6 27 -6
30 -12 43 -21 116 -26 204 l-7 109 29 -8 c16 -4 40 -9 54 -12z"/>
<path d="M35 1708 c9 -162 15 -254 20 -278 3 -14 7 -48 10 -75 10 -120 33
-196 65 -212 19 -9 150 -13 532 -13 l507 0 13 23 c7 12 13 27 15 32 26 103 34
158 49 365 l6 90 -38 1 c-22 1 -55 2 -74 4 -19 1 -105 5 -190 9 -85 4 -171 9
-190 11 -19 2 -91 6 -160 9 -69 4 -141 8 -160 10 -19 3 -80 7 -135 11 -55 3
-109 8 -120 10 -11 2 -39 4 -62 4 -40 1 -79 24 -68 41 3 4 -2 13 -10 20 -12
10 -14 2 -10 -62z"/>
</g>
</svg>
