<svg width="18" height="18" viewBox="0 0 18 18" fill="none" xmlns="http://www.w3.org/2000/svg">
<path d="M15.9607 11.483C15.8728 11.5451 14.0517 13.503 14.0517 14.877C14.0517 16.3258 14.9576 17.2509 15.9607 17.3013C16.8254 17.344 17.8695 16.4373 17.8695 14.877C17.8695 13.4225 16.0484 11.5451 15.9607 11.483ZM6.02114 17.3013C6.38192 17.6679 6.86105 17.8696 7.37071 17.8696C7.88039 17.8696 8.35955 17.6679 8.72028 17.3013L15.4014 10.5133L14.7265 9.82774L7.37071 2.35406L5.18219 0.130493L3.83262 1.50168L6.02114 3.72526L0.689665 9.14208C0.328893 9.50865 0.130371 9.99543 0.130371 10.5133C0.130371 11.0312 0.328893 11.518 0.689665 11.8845L6.02114 17.3013ZM7.37071 5.09644L12.7022 10.5133H2.03924L7.37071 5.09644Z" fill="#127BBF"/>
</svg>
