<svg width="24" height="24" viewBox="0 0 24 24" fill="none" xmlns="http://www.w3.org/2000/svg">
<g clip-path="url(#clip0_1_9816)">
<path d="M14.4001 6.72V4.8H16.8001V2.88H10.0801V4.8H12.4801V6.72" fill="#127BBF"/>
<path d="M4.31998 12.96H2.39998V10.08H0.47998V17.76H2.39998V14.88H4.31998" fill="#127BBF"/>
<path d="M21.6001 9.59995V12H20.1601V8.08459C20.1601 7.59643 19.7708 7.19995 19.2917 7.19995H9.59527C9.36535 7.19995 9.14359 7.29355 8.98087 7.46011L6.72007 10.08H5.28007C4.80007 10.08 4.32007 10.56 4.32007 11.04V16.8C4.32007 17.2886 4.80103 17.76 5.28007 17.76H6.72007L8.98183 20.3812C9.14455 20.5468 9.36535 20.64 9.59527 20.64H15.7657C15.9956 20.64 16.2164 20.5468 16.3791 20.3812L19.9052 16.7899C20.0689 16.6238 20.1596 16.3991 20.1596 16.1644V14.88H21.5996V17.28H23.5196V9.59995H21.6001Z" fill="#127BBF"/>
<path d="M15.3601 13.44L11.5201 18.72L12.9601 14.4H10.5601L12.9601 9.59998H15.3601L12.9601 13.44H15.3601Z" fill="white"/>
</g>
<defs>
<clipPath id="clip0_1_9816">
<rect width="24" height="24" fill="white"/>
</clipPath>
</defs>
</svg>
