<svg width="11" height="8" viewBox="0 0 11 8" fill="none" xmlns="http://www.w3.org/2000/svg">
<path fill-rule="evenodd" clip-rule="evenodd" d="M4.3335 0H6.3335C8.21911 0 9.16192 0 9.74771 0.585786C10.3335 1.17157 10.3335 2.11438 10.3335 4C10.3335 5.88562 10.3335 6.82843 9.74771 7.41421C9.16192 8 8.21911 8 6.3335 8H4.3335C2.44788 8 1.50507 8 0.919283 7.41421C0.333496 6.82843 0.333496 5.88562 0.333496 4C0.333496 2.11438 0.333496 1.17157 0.919283 0.585786C1.50507 0 2.44788 0 4.3335 0ZM5.9585 2.5C5.9585 2.29289 6.12639 2.125 6.3335 2.125H8.8335C9.0406 2.125 9.2085 2.29289 9.2085 2.5C9.2085 2.70711 9.0406 2.875 8.8335 2.875H6.3335C6.12639 2.875 5.9585 2.70711 5.9585 2.5ZM6.4585 4C6.4585 3.79289 6.62639 3.625 6.8335 3.625H8.8335C9.0406 3.625 9.2085 3.79289 9.2085 4C9.2085 4.20711 9.0406 4.375 8.8335 4.375H6.8335C6.62639 4.375 6.4585 4.20711 6.4585 4ZM6.9585 5.5C6.9585 5.29289 7.12639 5.125 7.3335 5.125H8.8335C9.0406 5.125 9.2085 5.29289 9.2085 5.5C9.2085 5.70711 9.0406 5.875 8.8335 5.875H7.3335C7.12639 5.875 6.9585 5.70711 6.9585 5.5ZM4.8335 2.5C4.8335 3.05228 4.38578 3.5 3.8335 3.5C3.28121 3.5 2.8335 3.05228 2.8335 2.5C2.8335 1.94772 3.28121 1.5 3.8335 1.5C4.38578 1.5 4.8335 1.94772 4.8335 2.5ZM3.8335 6.5C5.8335 6.5 5.8335 6.05228 5.8335 5.5C5.8335 4.94772 4.93807 4.5 3.8335 4.5C2.72893 4.5 1.8335 4.94772 1.8335 5.5C1.8335 6.05228 1.8335 6.5 3.8335 6.5Z" fill="#61A7D4"/>
</svg>
