<svg width="21" height="15" viewBox="0 0 21 15" fill="none" xmlns="http://www.w3.org/2000/svg">
<path d="M12.101 8.56024V8.51784L11.8465 5.12495C11.8395 5.03306 11.8006 4.95354 11.7299 4.88639C11.6592 4.81924 11.5779 4.78566 11.486 4.78566H9.514C9.4221 4.78566 9.3408 4.81924 9.2701 4.88639C9.1994 4.95354 9.1605 5.03306 9.1535 5.12495L8.899 8.51784V8.56024C8.89193 8.64504 8.9202 8.71574 8.98382 8.77224C9.0474 8.82884 9.1217 8.85714 9.2065 8.85714H11.7935C11.8783 8.85714 11.9526 8.82884 12.0162 8.77224C12.0798 8.71574 12.1081 8.64504 12.101 8.56024ZM20.1484 13.5116C20.1484 14.0276 19.9859 14.2856 19.6607 14.2856H12.1964C12.2883 14.2856 12.3661 14.252 12.4297 14.1849C12.4933 14.1177 12.5216 14.0382 12.5145 13.9463L12.3025 11.2321C12.2954 11.1402 12.2565 11.0606 12.1858 10.9935C12.1151 10.9263 12.0339 10.8928 11.942 10.8928H9.058C8.96615 10.8928 8.88486 10.9263 8.81417 10.9935C8.74349 11.0606 8.70461 11.1402 8.69754 11.2321L8.48549 13.9463C8.47842 14.0382 8.5067 14.1177 8.57031 14.1849C8.63393 14.252 8.71168 14.2856 8.80357 14.2856H1.33929C1.01414 14.2856 0.851562 14.0276 0.851562 13.5116C0.851562 13.1299 0.943452 12.72 1.12723 12.2817L5.54855 1.21256C5.6051 1.07826 5.69699 0.961633 5.82422 0.862673C5.95145 0.763713 6.08575 0.714233 6.22712 0.714233H9.8214C9.7295 0.714233 9.6483 0.747813 9.5776 0.814963C9.5069 0.882113 9.468 0.961633 9.4609 1.05352L9.3019 3.08923C9.2948 3.18819 9.3231 3.26948 9.3867 3.3331C9.4503 3.39671 9.5281 3.42852 9.62 3.42852H11.38C11.4719 3.42852 11.5497 3.39671 11.6133 3.3331C11.6769 3.26948 11.7052 3.18819 11.6981 3.08923L11.5391 1.05352C11.532 0.961633 11.4931 0.882113 11.4224 0.814963C11.3517 0.747813 11.2705 0.714233 11.1786 0.714233H14.7729C14.9142 0.714233 15.0485 0.763713 15.1758 0.862673C15.303 0.961633 15.3949 1.07826 15.4515 1.21256L19.8728 12.2817C20.0565 12.72 20.1484 13.1299 20.1484 13.5116Z" fill="#127BBF"/>
</svg>
