<svg width="24" height="24" viewBox="0 0 24 24" fill="none" xmlns="http://www.w3.org/2000/svg">
<path fill-rule="evenodd" clip-rule="evenodd" d="M10.635 4.12817C7.5575 4.6938 5.30991 6.69404 4.28891 9.77593C3.92552 10.8729 3.90142 12.8631 4.23652 14.0984C4.49523 15.0518 5.07384 16.2902 5.44666 16.6885C5.59157 16.8433 5.71018 17.0017 5.71018 17.0405C5.71018 17.1885 6.98591 18.3452 7.53047 18.6909C9.75783 20.105 12.496 20.3897 14.9842 19.4658C15.7692 19.1742 16.1948 18.9296 16.9817 18.3176C18.3459 17.2565 19.0558 16.26 19.7137 14.4832C19.9845 13.7514 20.0022 13.6006 19.9998 12.0393C19.9974 10.4773 19.9794 10.3276 19.705 9.5954C19.3318 8.59996 18.9039 7.72349 18.791 7.72349C18.7427 7.72349 18.7032 7.67003 18.7032 7.60473C18.7032 7.48139 17.9559 6.57455 17.5317 6.18301C16.3553 5.0974 14.9677 4.42227 13.3171 4.13243C12.3188 3.9572 11.5717 3.95595 10.635 4.12817ZM14.1842 5.80114C16.1498 6.50674 17.6953 8.04088 18.3732 9.95938C18.6445 10.7271 18.7415 11.8371 18.6155 12.731C18.4672 13.7833 18.3703 14.0946 17.8824 15.0889C17.157 16.5669 15.8267 17.6742 14.0317 18.2942C13.3157 18.5415 13.0371 18.5812 11.9971 18.5836C10.0682 18.5883 8.8347 18.0843 7.43302 16.7191C5.99635 15.3197 5.39584 13.9385 5.39584 12.0337C5.39584 11.1792 5.44896 10.7912 5.65412 10.1468C6.392 7.82831 8.23618 6.11146 10.5521 5.58701C11.5707 5.35625 13.2152 5.45327 14.1842 5.80114ZM11.5544 7.15765C11.0512 7.42877 11.0064 7.62948 10.9666 9.79819C10.9187 12.402 10.9841 13.0334 11.338 13.3846C11.6982 13.7422 12.2899 13.7491 12.6986 13.4004L12.9926 13.1495L13.024 10.5226C13.0443 8.82074 13.0159 7.80128 12.9432 7.6276C12.8241 7.34286 12.3064 6.99271 12.0149 6.99968C11.9187 7.00197 11.7115 7.0731 11.5544 7.15765ZM11.3303 15.1733C10.7143 15.7848 11.136 16.979 11.968 16.979C12.6642 16.979 13.1339 16.3904 13.0006 15.6851C12.8603 14.9427 11.8688 14.6388 11.3303 15.1733Z" fill="#127BBF"/>
</svg>
