<svg width="14" height="16" viewBox="0 0 14 16" fill="none" xmlns="http://www.w3.org/2000/svg">
<path d="M5.53381 0.173971H10.821C11.6361 0.173971 12.3765 0.450608 12.913 0.896215C13.4495 1.34181 13.7825 1.95694 13.7825 2.63398V14.5628C13.7825 14.9108 13.6116 15.2267 13.3362 15.4554C13.0608 15.6841 12.6805 15.8261 12.2616 15.8261H1.73817C1.31931 15.8261 0.938934 15.6841 0.663591 15.4554C0.388207 15.2267 0.217285 14.9108 0.217285 14.5628V4.59008C0.217285 3.37513 0.815209 2.27098 1.77853 1.47081C2.74183 0.670635 4.07113 0.17395 5.53381 0.17395V0.173971ZM5.53381 1.17239C4.43893 1.17239 3.40183 1.53442 2.62844 2.17679C1.85508 2.8192 1.41925 3.68066 1.41925 4.59009V7.27774V8.20383C5.7112 9.34028 9.04073 7.90518 12.5805 7.34244V7.28922V2.63398C12.5805 2.24468 12.3942 1.87717 12.0632 1.6022C11.7321 1.32727 11.2896 1.17239 10.821 1.17239H5.53381Z" fill="#127BBF"/>
</svg>
