<svg width="18" height="16" viewBox="0 0 18 16" fill="none" xmlns="http://www.w3.org/2000/svg">
<path d="M16.3516 8H1.17383V9.56522H16.3516V8Z" fill="#127BBF"/>
<path d="M16.3518 15.8261V2.52173H14.834V15.8261H16.3518Z" fill="#127BBF"/>
<path d="M11.5303 15.8261V1.73914H10.0125V15.8261H11.5303Z" fill="#127BBF"/>
<path d="M6.61987 15.8261L6.61987 1.73914H5.10209L5.10209 15.8261H6.61987Z" fill="#127BBF"/>
<path d="M1.64815 1.73914V9.56522H0.130371V1.73914H1.64815Z" fill="#127BBF"/>
<path d="M15.5928 4.8696C16.8502 4.8696 17.8695 3.81844 17.8695 2.52178C17.8695 1.22511 16.8502 0.17395 15.5928 0.17395C14.3355 0.17395 13.3162 1.22511 13.3162 2.52178C13.3162 3.81844 14.3355 4.8696 15.5928 4.8696Z" fill="#127BBF"/>
</svg>
